<?xml version="1.0" encoding="UTF-8" standalone="no"?>
<!-- Created with Inkscape (http://www.inkscape.org/) -->

<svg
   xmlns:dc="http://purl.org/dc/elements/1.1/"
   xmlns:cc="http://creativecommons.org/ns#"
   xmlns:rdf="http://www.w3.org/1999/02/22-rdf-syntax-ns#"
   xmlns:svg="http://www.w3.org/2000/svg"
   xmlns="http://www.w3.org/2000/svg"
   xmlns:sodipodi="http://sodipodi.sourceforge.net/DTD/sodipodi-0.dtd"
   xmlns:inkscape="http://www.inkscape.org/namespaces/inkscape"
   width="210mm"
   height="297mm"
   viewBox="0 0 744.09448819 1052.3622047"
   id="svg2"
   version="1.1"
   inkscape:version="0.91 r13725"
   sodipodi:docname="autocmake.svg">
  <defs
     id="defs4" />
  <sodipodi:namedview
     id="base"
     pagecolor="#ffffff"
     bordercolor="#666666"
     borderopacity="1.0"
     inkscape:pageopacity="0.0"
     inkscape:pageshadow="2"
     inkscape:zoom="0.49497475"
     inkscape:cx="255.71429"
     inkscape:cy="520"
     inkscape:document-units="px"
     inkscape:current-layer="layer1"
     showgrid="false"
     inkscape:window-width="1920"
     inkscape:window-height="1001"
     inkscape:window-x="0"
     inkscape:window-y="27"
     inkscape:window-maximized="1" />
  <metadata
     id="metadata7">
    <rdf:RDF>
      <cc:Work
         rdf:about="">
        <dc:format>image/svg+xml</dc:format>
        <dc:type
           rdf:resource="http://purl.org/dc/dcmitype/StillImage" />
        <dc:title></dc:title>
      </cc:Work>
    </rdf:RDF>
  </metadata>
  <g
     inkscape:label="Layer 1"
     inkscape:groupmode="layer"
     id="layer1">
    <g
       id="g3411">
      <rect
         y="326.18109"
         x="72.047241"
         height="400"
         width="600"
         id="rect3407"
         style="fill:#0e4089;fill-opacity:1" />
      <path
         inkscape:connector-curvature="0"
         id="path3401"
         d="m 308.00113,650.73649 c 0,-0.42522 5.41704,-26.15959 12.03787,-57.1875 6.62083,-31.0279 12.97185,-60.80188 14.1134,-66.16438 l 2.07552,-9.75 15.3241,0 15.32411,0 0.19153,66.9375 0.19153,66.93751 -29.62903,0 c -19.84348,0 -29.62903,-0.25534 -29.62903,-0.77313 z m 71.0849,-51.16438 c -0.0908,-28.56562 -0.19938,-58.34999 -0.24129,-66.1875 -0.0419,-7.8375 0.0685,-14.67187 0.24533,-15.1875 0.24153,-0.70421 3.74313,-0.9375 14.07204,-0.9375 7.56277,0 13.90344,0.25313 14.09042,0.5625 0.33225,0.54975 29.7486,132.27474 29.7486,133.21275 0,0.26112 -12.99375,0.47476 -28.875,0.47476 l -28.875,0 -0.1651,-51.93751 z m 33.9151,-88.28869 0,-7.52381 -41.22185,0 -41.22186,0 -0.21564,6.9375 -0.21565,6.9375 -7.875,0 -7.875,0 -0.21565,-6.9375 -0.21564,-6.9375 -9.37402,0 -9.37401,0 0.21466,-7.3125 0.21466,-7.3125 76.5,0 76.5,0 0.21562,6.9375 c 0.1638,5.26821 -0.0165,6.9383 -0.75,6.94082 -5.8743,0.0202 -16.4307,0.58678 -16.74262,0.89865 -0.21953,0.21958 -0.55058,3.56584 -0.7356,7.43614 l -0.33638,7.03689 -8.63805,0.21131 -8.63797,0.2113 0,-7.5238 z m -36.7508,-29.8988 c -1.20169,-0.401 -1.01461,-80.3489 0.1883,-80.46723 2.44805,-0.24081 8.48431,0.23383 8.86144,0.6968 0.23316,0.28623 1.1451,4.40167 2.02652,9.14542 0.88143,4.74375 4.16729,22.41712 7.30192,39.27415 3.13463,16.85703 5.55114,30.79733 5.37002,30.97845 -0.38858,0.38858 -22.65342,0.73772 -23.7482,0.37241 z m -32.72028,-1.8842 c 0.24284,-0.96756 3.82423,-18.4238 7.95865,-38.79165 4.13442,-20.36785 7.70756,-37.63246 7.94032,-38.3658 0.34778,-1.09576 1.28287,-1.33336 5.24765,-1.33336 l 4.82446,0 0,40.125 0,40.125 -13.20631,0 -13.20631,0 0.44154,-1.75919 z"
         style="fill:#ffffff" />
      <rect
         y="482.86636"
         x="77.082703"
         height="62.629459"
         width="589.92908"
         id="rect3409"
         style="fill:#0e4089;fill-opacity:1" />
      <text
         sodipodi:linespacing="125%"
         id="text3403"
         y="531.68109"
         x="192.04724"
         style="font-style:normal;font-weight:normal;font-size:40px;line-height:125%;font-family:sans-serif;letter-spacing:0px;word-spacing:0px;fill:#ffffff;fill-opacity:1;stroke:none;stroke-width:1px;stroke-linecap:butt;stroke-linejoin:miter;stroke-opacity:1"
         xml:space="preserve"><tspan
           style="font-style:normal;font-variant:normal;font-weight:500;font-stretch:normal;font-family:'Pet Me 64';-inkscape-font-specification:'Pet Me 64 Medium';fill:#ffffff"
           y="531.68109"
           x="192.04724"
           id="tspan3405"
           sodipodi:role="line">Autocmake</tspan></text>
    </g>
  </g>
</svg>
